HIERARCHY
ROOT Hips
{
	OFFSET 0.00000 0.00000 0.00000
	CHANNELS 6 Xposition Yposition Zposition Zrotation Yrotation Xrotation 
	JOINT LHipJoint
	{
		OFFSET 0 0 0
		CHANNELS 3 Zrotation Yrotation Xrotation
		JOINT LeftUpLeg
		{
			OFFSET 1.85742 -1.74412 1.01653
			CHANNELS 3 Zrotation Yrotation Xrotation
			JOINT LeftLeg
			{
				OFFSET 2.54803 -7.00067 0.00000
				CHANNELS 3 Zrotation Yrotation Xrotation
				JOINT LeftFoot
				{
					OFFSET 2.51202 -6.90173 0.00000
					CHANNELS 3 Zrotation Yrotation Xrotation
					JOINT LeftToeBase
					{
						OFFSET 0.17547 -0.48209 1.64281
						CHANNELS 3 Zrotation Yrotation Xrotation
						End Site
						{
							OFFSET 0.00000 -0.00000 0.86587
						}
					}
				}
			}
		}
	}
	JOINT RHipJoint
	{
		OFFSET 0 0 0
		CHANNELS 3 Zrotation Yrotation Xrotation
		JOINT RightUpLeg
		{
			OFFSET -1.95533 -1.74413 1.01654
			CHANNELS 3 Zrotation Yrotation Xrotation
			JOINT RightLeg
			{
				OFFSET -2.49465 -6.85400 0.00000
				CHANNELS 3 Zrotation Yrotation Xrotation
				JOINT RightFoot
				{
					OFFSET -2.54783 -7.00010 0.00000
					CHANNELS 3 Zrotation Yrotation Xrotation
					JOINT RightToeBase
					{
						OFFSET -0.18513 -0.50864 1.69288
						CHANNELS 3 Zrotation Yrotation Xrotation
						End Site
						{
							OFFSET -0.00000 -0.00000 0.89242
						}
					}
				}
			}
		}
	}
	JOINT LowerBack
	{
		OFFSET 0 0 0
		CHANNELS 3 Zrotation Yrotation Xrotation
		JOINT Spine
		{
			OFFSET 0.02173 2.16290 -0.15998
			CHANNELS 3 Zrotation Yrotation Xrotation
			JOINT Spine1
			{
				OFFSET 0.00940 2.17323 -0.00467
				CHANNELS 3 Zrotation Yrotation Xrotation
				JOINT Neck
				{
					OFFSET 0 0 0
					CHANNELS 3 Zrotation Yrotation Xrotation
					JOINT Neck1
					{
						OFFSET 0.01475 1.85823 0.31113
						CHANNELS 3 Zrotation Yrotation Xrotation
						JOINT Head
						{
							OFFSET 0.01902 1.88783 -0.37187
							CHANNELS 3 Zrotation Yrotation Xrotation
							End Site
							{
								OFFSET 0.00489 1.93211 -0.16169
							}
						}
					}
				}
				JOINT LeftShoulder
				{
					OFFSET 0 0 0
					CHANNELS 3 Zrotation Yrotation Xrotation
					JOINT LeftArm
					{
						OFFSET 3.34199 1.32384 -0.07862
						CHANNELS 3 Zrotation Yrotation Xrotation
						JOINT LeftForeArm
						{
							OFFSET 5.27950 -0.00000 0.00000
							CHANNELS 3 Zrotation Yrotation Xrotation
							JOINT LeftHand
							{
								OFFSET 3.53504 -0.00000 0.00000
								CHANNELS 3 Zrotation Yrotation Xrotation
								JOINT LeftFingerBase
								{
									OFFSET 0 0 0
									CHANNELS 3 Zrotation Yrotation Xrotation
									JOINT LeftHandIndex1
									{
										OFFSET 0.66795 -0.00000 0.00000
										CHANNELS 3 Zrotation Yrotation Xrotation
										End Site
										{
											OFFSET 0.53852 -0.00000 0.00000
										}
									}
								}
								JOINT LThumb
								{
									OFFSET 0 0 0
									CHANNELS 3 Zrotation Yrotation Xrotation
									End Site
									{
										OFFSET 0.54674 -0.00000 0.54674
									}
								}
							}
						}
					}
				}
				JOINT RightShoulder
				{
					OFFSET 0 0 0
					CHANNELS 3 Zrotation Yrotation Xrotation
					JOINT RightArm
					{
						OFFSET -3.16149 1.45719 -0.50507
						CHANNELS 3 Zrotation Yrotation Xrotation
						JOINT RightForeArm
						{
							OFFSET -5.25035 -0.00000 0.00000
							CHANNELS 3 Zrotation Yrotation Xrotation
							JOINT RightHand
							{
								OFFSET -3.58884 -0.00000 0.00000
								CHANNELS 3 Zrotation Yrotation Xrotation
								JOINT RightFingerBase
								{
									OFFSET 0 0 0
									CHANNELS 3 Zrotation Yrotation Xrotation
									JOINT RightHandIndex1
									{
										OFFSET -0.77924 -0.00000 0.00000
										CHANNELS 3 Zrotation Yrotation Xrotation
										End Site
										{
											OFFSET -0.62824 -0.00000 0.00000
										}
									}
								}
								JOINT RThumb
								{
									OFFSET 0 0 0
									CHANNELS 3 Zrotation Yrotation Xrotation
									End Site
									{
										OFFSET -0.63783 -0.00000 0.63783
									}
								}
							}
						}
					}
				}
			}
		}
	}
}
MOTION
Frames: 12
Frame Time: .0083333
-25.0738 17.5173 -3.6614 0 0 0 0 0 0 -21 0 0 0 0 0 0 0 0 0 0 0 0 0 0 21 0 0 0 0 0 0 0 0 0 0 0 0 0 0 0 0 0 0 0 0 0 0 -16 0 0 21 0 0 11 0 0 0 -8 0 0 0 0 0 0 0 0 0 0 0 0 0 0 0 0 0 0 0 0 8 0 0 0 0 0 0 0 0 0 0 0 0 0 0 0 0 0
-25.0738 17.5173 -3.6614 51.8286 89.5552 57.3638 0.0000 0.0000 0.0000 -18.4594 -25.7614 -4.0180 1.3780 7.4282 20.9904 -0.6017 17.9678 -19.2210 0.0399 -1.2890 -3.5443 0.0000 0.0000 0.0000 20.7403 28.1180 2.5065 -0.9639 -6.2511 17.5148 3.7181 -35.9291 -33.2842 -0.1967 -2.8563 7.8791 -2.2969 0.3362 0.4297 1.4993 0.4459 -0.7187 2.8211 0.2489 -1.0072 1.8012 1.6572 -21.5678 -3.0084 2.7255 23.3934 -0.9578 1.0716 11.2385 -0.0000 -0.0000 0.0000 -87.6769 6.0649 34.4855 20.0527 -30.7058 -5.5582 -0.0000 0.0000 -40.8887 39.8024 45.3538 30.6601 -7.1250 0.0000 -0.0000 0.9173 82.7867 0.7949 -0.0000 -0.0000 0.0000 81.7647 -5.3320 16.1116 -17.7294 27.8093 -4.4223 0.0000 -0.0000 -6.5621 -19.8696 15.5309 -5.5271 7.1250 -0.0000 -0.0000 5.2263 -13.5674 3.8709
-25.0619 17.5164 -3.6573 57.9612 89.5097 63.5083 0.0000 0.0000 0.0000 -18.5462 -25.8540 -3.9287 1.3759 7.4229 20.9746 -0.7189 18.3131 -18.3435 0.1904 -2.8103 -7.7510 0.0000 0.0000 0.0000 20.6989 28.0947 2.5219 -0.9691 -6.2675 17.5625 3.9563 -36.3308 -32.7497 -0.1300 -2.3237 6.4010 -2.3759 0.3146 0.3288 1.4978 0.4182 -0.7234 2.8649 0.2349 -0.9542 1.8403 1.6668 -21.4319 -3.0066 2.7268 23.3567 -0.9639 1.0781 11.1992 -0.0000 0.0000 0.0000 -87.7129 6.2231 34.7434 19.9333 -30.5618 -5.4974 -0.0000 0.0000 -39.1842 39.2411 45.8810 30.3857 -7.1250 0.0000 -0.0000 -2.4743 83.0660 -2.1576 -0.0000 0.0000 0.0000 81.7228 -5.4771 16.4286 -17.7231 27.8012 -4.4193 0.0000 -0.0000 -6.1162 -21.2599 15.6150 -5.9787 7.1250 -0.0000 -0.0000 4.2950 -13.3204 3.1991
-25.0531 17.5162 -3.6527 56.5528 89.5392 62.1012 0.0000 0.0000 0.0000 -18.5083 -25.8354 -3.9030 1.3779 7.4281 20.9900 -0.7094 18.2813 -18.4100 0.1990 -2.8723 -7.9235 0.0000 0.0000 0.0000 20.7617 28.0745 2.5731 -0.9632 -6.2488 17.5080 4.0665 -36.5034 -32.4615 -0.0963 -2.0013 5.5092 -2.3120 0.3288 0.3208 1.4902 0.4379 -0.7417 2.8207 0.2448 -0.9692 1.8623 1.6462 -21.3590 -2.9653 2.6806 23.3560 -0.9600 1.0657 11.1832 0.0000 0.0000 0.0000 -87.6921 6.3392 35.0274 19.7747 -30.3699 -5.4170 -0.0000 0.0000 -37.4186 38.5388 46.3123 29.9416 -7.1250 0.0000 -0.0000 -6.1919 83.1772 -5.4141 0.0000 0.0000 0.0000 81.7301 -5.5554 16.6847 -17.6623 27.7226 -4.3910 0.0000 -0.0000 -5.6917 -22.6770 15.6238 -6.4206 7.1250 -0.0000 -0.0000 3.3432 -13.1399 2.5000
-25.0456 17.5172 -3.6481 55.9728 89.6016 61.5314 0.0000 0.0000 0.0000 -18.4459 -25.9094 -3.8541 1.3788 7.4304 20.9969 -0.5433 17.9639 -19.9531 0.1240 -2.2699 -6.2520 0.0000 0.0000 0.0000 20.7504 27.6591 2.4147 -0.9573 -6.2302 17.4538 4.0203 -36.2447 -32.0332 -0.0677 -1.6782 4.6172 -2.2147 0.3392 0.3518 1.4737 0.4521 -0.7765 2.7485 0.2523 -1.0223 1.9311 1.6289 -21.2854 -2.9333 2.6256 23.3570 -0.9688 1.0523 11.1682 0.0000 0.0000 0.0000 -87.6595 6.4221 35.2324 19.5848 -30.1388 -5.3213 -0.0000 0.0000 -35.5729 37.8016 46.7740 29.4768 -7.1250 0.0000 -0.0000 -10.2322 83.2797 -8.9719 0.0000 0.0000 0.0000 81.7702 -5.6484 17.0306 -17.5596 27.5896 -4.3433 0.0000 -0.0000 -5.2434 -24.0614 15.5642 -6.8319 7.1250 -0.0000 -0.0000 2.4096 -13.0273 1.8061
-25.0362 17.5199 -3.6447 56.3262 89.6483 61.8866 0.0000 0.0000 0.0000 -18.4468 -26.1944 -3.7034 1.3833 7.4419 21.0314 -0.6530 18.1650 -18.9405 0.1489 -2.4867 -6.8527 0.0000 0.0000 0.0000 20.7001 27.0937 2.2346 -0.9469 -6.1974 17.3582 3.9319 -35.8712 -31.5836 -0.0639 -1.6308 4.4864 -2.1393 0.3609 0.3472 1.4729 0.4820 -0.7877 2.7048 0.2670 -1.0324 1.9793 1.6029 -21.2298 -2.8922 2.5623 23.3569 -0.9720 1.0341 11.1557 0.0000 0.0000 0.0000 -87.6742 6.4318 35.4441 19.3990 -29.9114 -5.2283 -0.0000 0.0000 -33.7972 37.3081 47.3474 29.2683 -7.1250 0.0000 -0.0000 -14.2622 83.5610 -12.5921 0.0000 0.0000 0.0000 81.7770 -5.7400 17.3427 -17.4390 27.4329 -4.2876 0.0000 -0.0000 -4.8133 -25.4081 15.4615 -7.2171 7.1250 -0.0000 -0.0000 1.4981 -12.9583 1.1244
-25.0254 17.5233 -3.6421 45.7353 89.6976 51.3031 0.0000 0.0000 0.0000 -18.4200 -26.4807 -3.5328 1.3864 7.4500 21.0557 -0.6125 17.9655 -19.0749 0.1211 -2.2430 -6.1776 0.0000 0.0000 0.0000 20.7161 26.6844 2.1105 -0.9383 -6.1700 17.2784 3.8281 -35.5264 -31.3503 -0.0837 -1.8657 5.1345 -1.9822 0.4255 0.2679 1.4690 0.5708 -0.7633 2.6118 0.3091 -0.9667 1.9934 1.5546 -21.1951 -2.8217 2.4706 23.3593 -0.9631 1.0034 11.1463 0.0000 -0.0000 0.0000 -87.6449 6.3894 35.7473 19.2574 -29.7373 -5.1579 -0.0000 0.0000 -32.1632 36.7938 48.0109 29.0702 -7.1250 0.0000 -0.0000 -19.1952 83.8753 -17.0821 0.0000 -0.0000 0.0000 81.7893 -5.7765 17.5491 -17.3060 27.2595 -4.2266 0.0000 -0.0000 -4.2696 -26.7155 15.3308 -7.5795 7.1250 -0.0000 -0.0000 0.6104 -12.9187 0.4585
-25.0156 17.5222 -3.6391 40.9583 89.6948 46.5243 0.0000 0.0000 0.0000 -18.4357 -26.5533 -3.4486 1.3883 7.4550 21.0704 -0.5722 17.8185 -19.3093 0.1105 -2.1433 -5.9018 0.0000 0.0000 0.0000 20.7294 26.5914 2.1345 -0.9305 -6.1448 17.2052 3.7741 -35.3814 -31.3369 -0.0968 -2.0064 5.5232 -1.9594 0.4368 0.2203 1.5036 0.5871 -0.7317 2.6350 0.3163 -0.9088 2.0104 1.5690 -21.1613 -2.7974 2.4796 23.3637 -0.9558 1.0127 11.1415 0.0000 0.0000 0.0000 -87.7062 6.3635 35.9063 19.1118 -29.5573 -5.0859 -0.0000 0.0000 -30.4196 35.9805 48.5619 28.5585 -7.1250 0.0000 -0.0000 -24.4806 83.9213 -21.8416 0.0000 0.0000 0.0000 81.7295 -5.8016 18.0084 -17.2073 27.1302 -4.1814 0.0000 -0.0000 -3.4591 -27.9956 15.1145 -7.8919 7.1250 -0.0000 -0.0000 -0.2677 -12.9718 -0.2008
-25.0072 17.5211 -3.6358 50.7716 89.6803 56.3156 0.0000 0.0000 0.0000 -18.4859 -26.4388 -3.4436 1.3911 7.4620 21.0916 -0.5520 17.6739 -19.2888 0.1112 -2.1499 -5.9201 0.0000 0.0000 0.0000 20.6922 26.4386 2.1757 -0.9222 -6.1181 17.1276 3.7469 -35.2791 -31.2457 -0.0920 -1.9560 5.3840 -2.0509 0.4326 0.2317 1.5277 0.5810 -0.7429 2.7112 0.3144 -0.9275 2.0748 1.5867 -21.0645 -2.7919 2.4845 23.3658 -0.9641 1.0230 11.1247 -0.0000 0.0000 0.0000 -87.7621 6.4040 36.1164 18.9453 -29.3507 -5.0040 -0.0000 0.0000 -28.6853 35.2908 48.9802 28.1032 -7.1250 0.0000 -0.0000 -28.6562 83.8952 -25.5921 -0.0000 0.0000 0.0000 81.7064 -5.9325 18.4550 -17.1527 27.0586 -4.1566 0.0000 -0.0000 -2.7113 -29.2849 14.8914 -8.2013 7.1250 -0.0000 -0.0000 -1.1539 -13.0267 -0.8643
-24.9994 17.5250 -3.6309 51.6930 89.7731 57.2545 0.0000 0.0000 0.0000 -18.3544 -26.2896 -3.5037 1.3893 7.4574 21.0776 -0.4640 17.3240 -19.7407 0.0877 -1.9097 -5.2561 0.0000 0.0000 0.0000 20.7568 26.1467 2.0870 -0.9194 -6.1093 17.1018 3.7109 -35.1234 -31.0668 -0.0885 -1.9191 5.2821 -1.9862 0.4404 0.2019 1.5444 0.5929 -0.7518 2.6920 0.3201 -0.9202 2.1517 1.5716 -21.0239 -2.7581 2.4294 23.3754 -0.9734 1.0100 11.1193 -0.0000 -0.0000 0.0000 -87.7187 6.4048 36.4871 18.7955 -29.1637 -4.9308 -0.0000 0.0000 -26.9865 34.5522 49.2715 27.5576 -7.1250 0.0000 -0.0000 -31.9460 83.7402 -28.4794 -0.0000 -0.0000 0.0000 81.7495 -6.0382 18.7937 -17.0979 26.9866 -4.1317 0.0000 -0.0000 -2.0240 -30.5290 14.5792 -8.4436 7.1250 -0.0000 -0.0000 -2.0211 -13.1857 -1.5077
-24.9909 17.5266 -3.6258 50.8603 89.8917 56.4209 0.0000 0.0000 0.0000 -18.2162 -26.1561 -3.5011 1.3796 7.4326 21.0034 -0.4000 17.1883 -20.2708 0.0321 -1.1567 -3.1802 0.0000 0.0000 0.0000 20.8781 25.9441 2.0571 -0.9214 -6.1154 17.1198 3.6671 -35.0031 -31.0547 -0.1014 -2.0536 5.6539 -1.8794 0.4414 0.1905 1.5561 0.5954 -0.7498 2.6440 0.3206 -0.9108 2.0525 1.5592 -21.1976 -2.4543 2.3716 23.6812 -0.8548 1.0134 11.2599 0.0000 -0.0000 0.0000 -87.6261 6.4573 37.0842 18.5292 -28.8295 -4.8017 -0.0000 0.0000 -23.4312 32.6931 49.8476 26.1309 -7.1250 0.0000 -0.0000 -38.4842 83.2127 -34.0589 0.0000 -0.0000 0.0000 81.7695 -6.0881 19.1330 -17.0227 26.8877 -4.0976 0.0000 -0.0000 -1.3942 -31.6936 14.2354 -8.6336 7.1250 -0.0000 -0.0000 -2.8410 -13.3923 -2.1084
-24.9815 17.5254 -3.6238 79.6966 89.8670 85.2300 0.0000 0.0000 0.0000 -18.2778 -26.0087 -3.4304 1.3654 7.3958 20.8934 -0.4939 17.6113 -19.9004 0.0542 -1.5020 -4.1312 0.0000 0.0000 0.0000 20.8132 25.6436 1.9955 -0.9242 -6.1246 17.1464 3.6696 -34.9191 -30.7886 -0.0854 -1.8855 5.1892 -1.9179 0.4293 0.1891 1.5436 0.5787 -0.7385 2.6531 0.3121 -0.8978 2.0967 1.5692 -21.1865 -2.4029 2.3584 23.7211 -0.8455 1.0186 11.2723 0.0000 -0.0000 0.0000 -87.6087 6.4499 37.1463 18.5873 -28.9026 -4.8297 -0.0000 0.0000 -23.5595 32.8956 49.9670 26.3471 -7.1250 0.0000 -0.0000 -39.1204 83.3758 -34.7476 0.0000 -0.0000 0.0000 81.6924 -6.0903 19.6466 -16.9117 26.7412 -4.0475 0.0000 -0.0000 -0.9425 -32.8645 13.8310 -8.7796 7.1250 -0.0000 -0.0000 -3.6751 -13.6681 -2.7083
